<svg width="33" height="42" viewBox="0 0 33 42" fill="none" xmlns="http://www.w3.org/2000/svg">
<path d="M2.67772 38.9746L2.62516 38.8821C1.33323 36.6081 0.655158 33.193 0.574954 29.6382C0.494651 26.0791 1.01279 22.3422 2.14553 19.4118L2.16477 19.3621L2.20264 19.3245C2.42673 19.1021 2.67457 18.8741 2.97314 18.6117L2.97338 18.6115C2.97938 18.6062 3.0142 18.5763 3.07031 18.528C3.38428 18.258 4.36503 17.4144 4.69597 17.1124L4.69604 17.1123C5.97528 15.9455 6.87782 14.8504 7.60477 13.45C9.22074 10.3353 9.71863 8.81173 9.97866 6.04795L9.97866 6.04789C10.0194 5.61595 10.042 5.10416 10.0494 4.52535L10.0494 4.52529C10.0584 3.82648 10.0443 3.07892 10.0154 2.34029L10.0154 2.34022C10.0051 2.07747 9.99494 1.86113 9.98647 1.70539L9.98161 1.61589L10.0347 1.54369C10.1253 1.42059 10.2612 1.26772 10.4377 1.11601L2.67772 38.9746ZM2.67772 38.9746L2.78082 39.0009M2.67772 38.9746L2.78082 39.0009M2.78082 39.0009C6.56701 39.9653 11.0075 40.4526 15.0053 40.5622C18.9974 40.6716 22.5756 40.4052 24.63 39.8477L24.6306 39.8475M2.78082 39.0009L24.6306 39.8475M24.6306 39.8475C24.6693 39.8369 24.6938 39.8306 24.7612 39.8138C24.8147 39.8007 25.0019 39.7563 25.0251 39.751L25.0278 39.7504M24.6306 39.8475L25.0278 39.7504M24.6407 39.3285L24.6419 39.3282C24.6952 39.3152 24.8802 39.2713 24.9125 39.2638C25.0161 39.239 25.0975 39.2177 25.1771 39.1954C25.375 39.1397 25.5393 39.0796 25.6904 39.0061L25.6907 39.006C26.6773 38.5275 27.2888 37.3357 27.1658 34.4981C27.1558 34.2726 27.2625 34.0584 27.4463 33.9294L27.4471 33.9288C28.3984 33.2673 28.927 32.5624 29.1443 31.7439C29.3638 30.9171 29.2757 29.9381 28.9178 28.7106L28.9177 28.7104C28.8095 28.3379 29.0444 27.953 29.4255 27.8795L29.4257 27.8795C29.7286 27.8213 30.0316 27.5842 30.2993 27.1893C30.5641 26.7989 30.773 26.284 30.8969 25.7363C31.0207 25.1888 31.0562 24.6231 30.9862 24.1345C30.9156 23.6418 30.7428 23.2575 30.4796 23.0307L24.6407 39.3285ZM24.6407 39.3285C24.5722 39.3456 24.5432 39.353 24.4991 39.3651C22.5163 39.9032 18.9969 40.1714 15.019 40.0624C11.0834 39.9545 6.72613 39.4781 3.00808 38.5426C1.80729 36.3698 1.15304 33.0933 1.07483 29.627C0.996059 26.1359 1.50248 22.4895 2.59271 19.642M24.6407 39.3285L8.04857 13.6803M25.0278 39.7504C25.1379 39.724 25.226 39.701 25.3124 39.6767L25.3125 39.6767L25.0278 39.7504ZM27.6653 34.4761L27.6653 34.4765C27.7896 37.3428 27.1899 38.8345 25.9091 39.4557L27.6653 34.4761ZM27.6653 34.4761C27.6629 34.4226 27.6883 34.3704 27.7334 34.3387M27.6653 34.4761L27.7334 34.3387M30.8055 22.6516L30.8057 22.6517C31.1961 22.9879 31.4015 23.5075 31.4811 24.0636C31.5613 24.6237 31.519 25.2517 31.3845 25.8465C31.2501 26.4411 31.0202 27.0171 30.7132 27.4699C30.4092 27.9182 30.0075 28.2768 29.5202 28.3705L30.8055 22.6516ZM30.8055 22.6516C30.7346 22.5906 30.732 22.4814 30.7995 22.4172L30.7997 22.417M30.8055 22.6516L30.7997 22.417M30.7997 22.417C31.1154 22.116 31.3967 21.6084 31.5985 21.0544C31.8022 20.4953 31.9366 19.857 31.9369 19.2738M30.7997 22.417L17.4466 15.534M31.4369 19.2734V19.2732C31.438 18.2856 31.2379 17.578 30.8301 17.0785C30.4234 16.5805 29.7777 16.2496 28.8012 16.085L28.8011 16.085C27.7906 15.9145 26.6455 15.8054 25.3889 15.7533C23.326 15.6678 21.1086 15.7362 18.9394 15.9037C18.4099 15.9446 17.9259 15.9883 17.4977 16.0314C17.2409 16.0581 17.0617 16.0778 16.9693 16.089L31.4369 19.2734ZM31.4369 19.2734C31.4366 19.7868 31.3169 20.3668 31.1287 20.8833C30.9387 21.4049 30.6904 21.8303 30.4546 22.0552M31.4369 19.2734L30.4546 22.0552M17.4466 15.534L17.4474 15.5339C17.8794 15.4904 18.3674 15.4464 18.9009 15.4052C21.0845 15.2366 23.3224 15.1672 25.4096 15.2537C26.6816 15.3064 27.8483 15.4172 28.8843 15.592C29.9292 15.7681 30.7067 16.1368 31.2173 16.7623C31.7268 17.3861 31.938 18.2257 31.9369 19.2738M17.4466 15.534C17.1888 15.5608 17.006 15.5809 16.9092 15.5926L16.909 15.5926M17.4466 15.534L16.909 15.5926M31.9369 19.2738L31.6869 19.2735L31.9369 19.2736C31.9369 19.2737 31.9369 19.2737 31.9369 19.2738ZM16.909 15.5926C16.8452 15.6004 16.7832 15.5688 16.7521 15.5138M16.909 15.5926L16.7521 15.5138M8.04857 13.6803L8.04854 13.6804C7.28846 15.1446 6.34498 16.2851 5.03298 17.4817M8.04857 13.6803C9.68582 10.5246 10.2089 8.93852 10.4765 6.09484L8.04857 13.6803ZM5.03298 17.4817L4.86451 17.297L5.03305 17.4817C5.03302 17.4817 5.033 17.4817 5.03298 17.4817ZM5.03298 17.4817C4.83394 17.6634 4.40784 18.0341 4.03029 18.3606C3.84086 18.5244 3.66269 18.6779 3.52984 18.7923L3.36879 18.9308L3.32182 18.9712L3.30827 18.9829L3.30431 18.9863L3.30322 18.9872M3.30322 18.9872L3.13818 18.7995L3.30298 18.9874L3.30322 18.9872ZM3.30322 18.9872C3.02646 19.2305 2.79765 19.4405 2.59271 19.642M2.59271 19.642C2.59909 19.6253 2.60549 19.6087 2.61191 19.5921L2.37872 19.5019L2.55481 19.6794C2.56735 19.667 2.57999 19.6545 2.59271 19.642ZM27.7334 34.3387C28.7536 33.6291 29.3722 32.834 29.6275 31.8722C29.8808 30.9184 29.7669 29.8364 29.3978 28.5707M27.7334 34.3387L29.3978 28.5707M29.3978 28.5707C29.3978 28.5707 29.3978 28.5708 29.3979 28.5709L29.1578 28.6406L29.3978 28.5707ZM30.4546 22.0552C30.1726 22.3237 30.1848 22.7771 30.4794 23.0306L30.4546 22.0552ZM16.7521 15.5138C16.7376 15.4879 16.7165 15.4353 16.6972 15.3389C16.6283 14.988 16.6346 14.3913 16.7663 13.4742L16.7521 15.5138ZM2.53616 39.2649C2.49444 39.2539 2.46026 39.2278 2.43974 39.1929L2.43932 39.1922C1.09214 36.9222 0.356871 33.4384 0.26081 29.7484C0.165116 26.0724 0.704822 22.2301 1.8736 19.2395L1.93568 19.1437C2.17505 18.9037 2.43939 18.6594 2.76402 18.3739L2.76415 18.3738L2.76432 18.3736L2.76453 18.3735L2.76583 18.3723L2.77012 18.3686L2.78428 18.3564L2.83225 18.3152L2.99432 18.1758C3.12743 18.0613 3.30505 17.9083 3.49331 17.7457C3.86848 17.4214 4.28985 17.0551 4.48325 16.8785C4.48327 16.8785 4.48328 16.8785 4.4833 16.8785L4.31475 16.6938L2.53616 39.2649ZM2.53616 39.2649C6.35169 40.256 10.8566 40.7618 14.9345 40.8768C19.0181 40.9918 22.6461 40.7142 24.7142 40.153L24.7152 40.1528C24.7507 40.1433 24.7736 40.1373 24.8364 40.1216L24.8383 40.1211C24.8855 40.1097 25.0653 40.0669 25.1049 40.058C25.2193 40.03 25.3097 40.0071 25.3992 39.9817L25.3993 39.9817C25.6402 39.9136 25.8488 39.8375 26.0484 39.7409C27.3411 39.1139 28.0818 37.6566 27.9899 34.6815L27.9858 34.5504L28.0913 34.4726C29.0775 33.7451 29.6533 32.9491 29.9132 32.0461C30.1744 31.1381 30.1245 30.0934 29.8055 28.8559L29.753 28.6521L29.9448 28.5656C30.7666 28.195 31.417 27.1381 31.6944 25.9153C31.9713 24.6949 31.8497 23.4264 31.2641 22.6768L31.1452 22.5247L31.2624 22.3712C31.821 21.6398 32.2532 20.3647 32.2543 19.2741C32.2555 18.0992 31.9896 17.2048 31.46 16.5575C30.9314 15.9115 30.1123 15.4778 28.9377 15.2797L28.9793 15.0332L28.9377 15.2797C27.8901 15.103 26.7119 14.991 25.4234 14.9377L25.4234 14.9377C23.3241 14.8505 21.0758 14.9201 18.877 15.0893C18.3409 15.1307 17.8505 15.175 17.4164 15.2192C17.3872 15.2223 17.362 15.2249 17.3383 15.2273C17.3098 15.2302 17.2836 15.2329 17.2552 15.2361L16.9901 15.2658L16.9775 14.9994C16.9653 14.7385 16.9815 14.374 17.037 13.894L17.037 13.8939C17.1506 12.916 17.4146 11.5938 17.8604 9.88024M2.53616 39.2649L9.66328 6.01824M9.66328 6.01824C9.70344 5.59332 9.72584 5.08815 9.7333 4.52182L9.73331 4.52164C9.74192 3.82815 9.72813 3.08478 9.69952 2.3529L9.69952 2.35282C9.68579 2.00439 9.67204 1.73849 9.66341 1.58932L9.66333 1.58818C9.66138 1.55687 9.66893 1.52543 9.68547 1.49771L9.68552 1.49763C9.77836 1.34192 9.9586 1.11053 10.2314 0.876083L10.2315 0.875994C10.9718 0.239073 11.9045 0.0294806 13.0044 0.523677L13.0044 0.523681C16.2781 1.99432 18.9157 5.82126 17.8604 9.88024M9.66328 6.01824C9.40717 8.74807 8.91588 10.2363 7.32378 13.3046L9.66328 6.01824ZM17.8604 9.88024L18.1024 9.94315M17.8604 9.88024L18.1024 9.94315M18.1024 9.94315C17.658 11.6512 17.3971 12.961 17.2854 13.9228L10.0685 0.686481C10.8803 -0.0120284 11.9161 -0.239357 13.1069 0.295636C16.4627 1.80318 19.1957 5.73774 18.1024 9.94315Z" fill="#EBEBEB" stroke="black" stroke-width="0.5"/>
</svg>
