<svg width="33" height="42" viewBox="0 0 33 42" fill="none" xmlns="http://www.w3.org/2000/svg">
<path d="M2.84253 38.7586C10.3693 40.6758 20.5273 40.702 24.5646 39.6064C24.6062 39.595 24.6329 39.5881 24.7013 39.5711C24.7549 39.5579 24.9446 39.5129 24.9696 39.5072C25.0768 39.4816 25.1616 39.4594 25.2448 39.436C25.4534 39.3773 25.6322 39.3124 25.7998 39.2309C26.9335 38.6811 27.5392 37.3393 27.4155 34.4873C27.4093 34.3477 27.4753 34.2144 27.5899 34.1341C29.5618 32.7627 29.8847 31.1339 29.1578 28.6406C29.0906 28.4093 29.2364 28.1706 29.4729 28.125C31.0533 27.8213 31.9501 23.967 30.6425 22.8412C30.4597 22.6839 30.4522 22.4025 30.6272 22.2361C31.1787 21.7102 31.6863 20.3702 31.6869 19.2735C31.6892 17.2378 30.8642 16.1792 28.8427 15.8385C27.8195 15.6659 26.6635 15.5559 25.3993 15.5035C23.3242 15.4175 21.0966 15.4864 18.9201 15.6545C18.3886 15.6955 17.9026 15.7394 17.4724 15.7827C17.2149 15.8094 17.0337 15.8294 16.9391 15.8408C16.7751 15.8607 16.615 15.7798 16.5341 15.6363C16.5022 15.5793 16.4742 15.4989 16.452 15.3878C16.2971 14.5999 16.4987 12.8617 17.3112 9.73717C18.2883 5.98085 15.8025 2.40174 12.7715 1.04005C11.8935 0.64579 11.1877 0.80076 10.6007 1.30555C10.4384 1.44513 10.3153 1.58415 10.2361 1.69182C10.2447 1.84907 10.2549 2.06671 10.2652 2.3305C10.2942 3.0723 10.3085 3.82434 10.2993 4.52852C10.2919 5.11137 10.2692 5.63041 10.2276 6.07137C9.96377 8.87512 9.45328 10.4299 7.82666 13.5652C7.08314 14.9975 6.16013 16.1153 4.86451 17.297C4.47252 17.6548 3.17129 18.7704 3.13818 18.7995C2.84192 19.0598 2.59807 19.2843 2.37872 19.5019C0.142487 25.2871 0.316804 34.313 2.84253 38.7586ZM26.1573 39.9659C25.9419 40.0701 25.7192 40.151 25.4673 40.2223C25.3727 40.249 25.2782 40.273 25.1619 40.3015C25.1334 40.3077 24.9466 40.3522 24.897 40.3641C24.8355 40.3795 24.8138 40.3852 24.7796 40.3943C20.572 41.5361 10.1505 41.5013 2.47273 39.5067C2.36847 39.4793 2.27902 39.4127 2.22433 39.3198C-0.532019 34.6752 -0.730381 25.1896 1.65003 19.1249L1.74005 18.9858C1.98959 18.7346 2.26363 18.4811 2.59921 18.1859C2.64081 18.1495 3.93412 17.0413 4.31475 16.6938C5.54426 15.572 6.40849 14.526 7.10188 13.1894C8.68352 10.1413 9.16206 8.68441 9.41439 5.99472C9.4537 5.5788 9.47592 5.08086 9.48333 4.51853C9.49187 3.83028 9.4782 3.09132 9.44971 2.36266C9.43604 2.01569 9.42237 1.75133 9.41382 1.60377C9.40869 1.52173 9.42863 1.44026 9.47079 1.3696C9.57847 1.18899 9.77675 0.937175 10.0685 0.686481C10.8803 -0.0120284 11.9161 -0.239357 13.1069 0.295636C16.4627 1.80318 19.1957 5.73774 18.1024 9.94315C17.658 11.6512 17.3971 12.961 17.2854 13.9228C17.2307 14.3957 17.2159 14.7455 17.2273 14.9876C17.278 14.9819 17.3321 14.9768 17.3902 14.9705C17.8266 14.9261 18.3195 14.8817 18.8578 14.8401C21.0638 14.6703 23.3222 14.6002 25.4338 14.6879C26.7299 14.7415 27.919 14.8543 28.9793 15.0332C31.4081 15.4428 32.5067 16.8524 32.5043 19.2743C32.5032 20.4155 32.0554 21.7448 31.4611 22.5229C32.7647 24.1917 31.901 27.9578 30.0476 28.7935C30.6982 31.3175 30.2818 33.1674 28.2397 34.6737C28.3326 37.6791 27.5873 39.2725 26.1573 39.9659Z" fill="#C62626"/>
<path d="M2.84253 38.7586C10.3693 40.6758 20.5273 40.702 24.5646 39.6064C24.6062 39.595 24.6329 39.5881 24.7013 39.5711C24.7549 39.5579 24.9446 39.5129 24.9696 39.5072C25.0768 39.4816 25.1616 39.4594 25.2448 39.436C25.4534 39.3773 25.6322 39.3124 25.7998 39.2309C26.9335 38.6811 27.5392 37.3393 27.4155 34.4873C27.4093 34.3477 27.4753 34.2144 27.5899 34.1341C29.5618 32.7627 29.8847 31.1339 29.1578 28.6406C29.0906 28.4093 29.2364 28.1706 29.4729 28.125C31.0533 27.8213 31.9501 23.967 30.6425 22.8412C30.4597 22.6839 30.4522 22.4025 30.6272 22.2361C31.1787 21.7102 31.6863 20.3702 31.6869 19.2735C31.6892 17.2378 30.8642 16.1792 28.8427 15.8385C27.8195 15.6659 26.6635 15.5559 25.3993 15.5035C23.3242 15.4175 21.0966 15.4864 18.9201 15.6545C18.3886 15.6955 17.9026 15.7394 17.4724 15.7827C17.2149 15.8094 17.0337 15.8294 16.9391 15.8408C16.7751 15.8607 16.615 15.7798 16.5341 15.6363C16.5022 15.5793 16.4742 15.4989 16.452 15.3878C16.2971 14.5999 16.4987 12.8617 17.3112 9.73717C18.2883 5.98085 15.8025 2.40174 12.7715 1.04005C11.8935 0.64579 11.1877 0.80076 10.6007 1.30555C10.4384 1.44513 10.3153 1.58415 10.2361 1.69182C10.2447 1.84907 10.2549 2.06671 10.2652 2.3305C10.2942 3.0723 10.3085 3.82434 10.2993 4.52852C10.2919 5.11137 10.2692 5.63041 10.2276 6.07137C9.96377 8.87512 9.45328 10.4299 7.82666 13.5652C7.08314 14.9975 6.16013 16.1153 4.86451 17.297C4.47252 17.6548 3.17129 18.7704 3.13818 18.7995C2.84192 19.0598 2.59807 19.2843 2.37872 19.5019C0.142487 25.2871 0.316804 34.313 2.84253 38.7586Z" fill="#C62626"/>
</svg>
