<svg width="192" height="41" viewBox="0 0 192 41" fill="none" xmlns="http://www.w3.org/2000/svg">
<path d="M43.4919 0H51.3333V40.3208H0V0H7.84147V33.5197H21.7459V0H29.5874V33.5197H43.4919V0ZM57.9903 40.3208V0H73.6732L81.9189 38.1348H84.1015L92.3472 0H108.111V40.3208H100.27V6.72014L101.563 2.1051H99.4611L90.8113 40.3208H75.2092L66.6401 2.1051H64.4575L65.8317 6.72014V40.3208H57.9903Z" fill="white"/>
<path d="M192 0.162109V6.96321H176.802V40.483H168.961V6.96321H153.763V0.162109H192Z" fill="white"/>
<path d="M138.379 20.8475L145.396 33.7795L158.589 26.7513L156.062 22.2532L152.413 24.2211C153.817 -5.01649 128.554 -1.92405 120.976 3.69856L126.309 9.04004C142.87 2.2929 146.519 15.2249 145.115 22.8154L142.87 18.3173L138.379 20.8475Z" fill="white"/>
<path d="M128.555 19.723L121.538 6.79102L108.345 13.8193L110.871 18.3174L114.52 16.3495C113.117 45.587 138.379 42.4946 145.958 36.872L140.625 31.5305C124.064 38.2776 120.415 25.3456 121.818 17.7551L124.064 22.2532L128.555 19.723Z" fill="white"/>
</svg>
