<svg width="77" height="77" viewBox="0 0 77 77" fill="none" xmlns="http://www.w3.org/2000/svg">
<path fill-rule="evenodd" clip-rule="evenodd" d="M38.0166 76.0331C59.0126 76.0331 76.0331 59.0126 76.0331 38.0166C76.0331 17.0206 59.0126 0 38.0166 0C17.0206 0 0 17.0206 0 38.0166C0 59.0126 17.0206 76.0331 38.0166 76.0331ZM29.7646 22.6856C30.4302 22.3698 31.8566 22.1488 33.8674 22.0501C35.8876 21.9507 38.4054 22.0032 39.7402 22.1724C41.6229 22.4111 42.3799 22.8452 42.7468 23.8968C42.9791 24.5625 42.9942 25.38 42.8973 32.0935C42.8472 35.5616 42.862 36.0195 43.0422 36.6056C43.388 37.7292 44.1502 38.3321 44.8763 38.0563C45.2186 37.9262 46.3092 36.948 46.9633 36.1844C47.2326 35.87 47.8436 35.0252 48.3209 34.3072C50.2187 31.4528 51.5739 28.9393 52.8198 25.9633C53.518 24.2954 53.9441 23.6965 54.5037 23.5962C54.7095 23.5593 57.3309 23.5228 60.3291 23.5151C65.0965 23.5026 65.8336 23.5236 66.2041 23.6825C67.0975 24.0659 67.2344 24.9323 66.6369 26.4237C65.8778 28.3189 64.6659 30.1819 61.1765 34.8181C59.7667 36.6912 58.424 38.5318 58.1928 38.9084C57.4684 40.0878 57.381 40.7467 57.8309 41.6355C58.1488 42.2633 58.5144 42.6571 61.5671 45.6595C63.8217 47.8768 65.2265 49.4836 66.1218 50.8694C66.7282 51.8076 66.9729 52.4894 66.9729 53.2402C66.9729 53.9546 66.3836 54.547 65.4952 54.7258C65.1524 54.7948 62.8787 54.8941 60.4427 54.9464C56.3703 55.0339 55.9467 55.0252 55.1844 54.8379C53.3439 54.3856 52.2558 53.5449 49.3299 50.3142C47.6207 48.4271 46.9678 47.827 46.239 47.473C45.4205 47.0755 44.8296 47.2252 44.1462 48.0031C43.3835 48.8715 43.0404 50.0317 42.904 52.2035C42.8062 53.7607 42.643 54.1798 41.9836 54.567C41.6202 54.7803 41.3642 54.8009 38.6373 54.8355C34.7953 54.8842 33.3698 54.6606 30.7777 53.6022C28.5682 52.7001 25.2965 50.512 23.4477 48.7001C20.8279 46.1321 16.9984 40.7109 14.0828 35.4424C11.9405 31.5714 9.19201 25.8685 9.022 24.9416C8.91774 24.3736 9.18792 23.9161 9.75066 23.7076C10.1703 23.5522 10.9481 23.5202 14.9013 23.4952C19.4795 23.4663 19.5652 23.4699 20.0119 23.7102C20.696 24.0783 20.9294 24.3906 21.5329 25.7456C22.5664 28.0661 22.8691 28.6873 24.2111 31.2421C26.3349 35.2849 27.3094 36.7075 28.6114 37.6655C29.1942 38.0944 29.3717 38.167 29.8389 38.167C30.6009 38.167 30.717 38.0995 31.0349 37.4727C31.4816 36.5913 31.7537 35.0196 31.9172 32.3773C31.9799 31.3623 31.7835 28.2449 31.6021 27.3752C31.1945 25.4211 30.6152 24.805 28.7284 24.3193C28.4628 24.2509 28.2457 24.1365 28.2457 24.065C28.2457 23.8572 29.2858 22.9127 29.7646 22.6856Z" fill="#B7D5FA"/>
</svg>
