<svg width="77" height="77" viewBox="0 0 77 77" fill="none" xmlns="http://www.w3.org/2000/svg">
<path fill-rule="evenodd" clip-rule="evenodd" d="M38.0166 76.0331C59.0126 76.0331 76.0331 59.0126 76.0331 38.0166C76.0331 17.0206 59.0126 0 38.0166 0C17.0206 0 0 17.0206 0 38.0166C0 59.0126 17.0206 76.0331 38.0166 76.0331ZM53.1767 55.1279L61.9186 19.3286L61.9194 19.3284C62.4509 17.1656 60.2565 15.3432 58.2168 16.2289L15.6209 34.6731C13.53 35.5756 13.4443 38.488 15.4667 39.527L24.1057 43.955L49.8172 26.1746C50.0912 25.9876 50.3655 26.2088 50.3827 26.4643L28.836 46.9016C28.3045 47.4125 27.9961 48.1108 27.9961 48.843V58.3124C27.9961 61.0207 31.5958 62.0255 33.0183 59.7091L38.2463 51.2107L49.3027 56.8819C50.8626 57.6825 52.7654 56.8139 53.1767 55.1279Z" fill="#B7D5FA"/>
</svg>
