<svg width="48" height="41" viewBox="0 0 48 41" fill="none" xmlns="http://www.w3.org/2000/svg">
<path d="M24.5394 39.8741C24.227 40.0973 23.9794 40.2715 23.8071 40.3918C23.6348 40.2714 23.3872 40.0973 23.0749 39.874C22.4271 39.4111 21.5009 38.7373 20.3891 37.8953C18.1647 36.2107 15.2011 33.8554 12.2394 31.1702C9.27524 28.4828 6.32626 25.4766 4.12212 22.491C1.90564 19.4886 0.5 16.583 0.5 14.0835C0.5 11.0197 1.67801 7.61022 3.83791 4.97237C5.99098 2.34286 9.10062 0.5 12.9758 0.5C16.8604 0.5 19.4438 2.21691 21.0665 3.93767C21.8805 4.80091 22.452 5.66511 22.8194 6.31266C23.0028 6.63602 23.1346 6.90411 23.2198 7.08929C23.2624 7.18184 23.2932 7.25356 23.313 7.30098C23.3229 7.32468 23.33 7.3423 23.3344 7.35339L23.339 7.36508L23.3396 7.36665L23.3398 7.36702L23.3398 7.36715L23.3398 7.36723L23.8068 8.59802L24.2743 7.3674L24.2743 7.36733L24.2744 7.36719L24.2745 7.36683L24.2751 7.36525L24.2797 7.35356C24.2809 7.35053 24.2823 7.347 24.284 7.343C24.2882 7.33237 24.294 7.31836 24.3012 7.30114C24.3209 7.25372 24.3518 7.182 24.3944 7.08944C24.4797 6.90425 24.6116 6.63615 24.7952 6.31278C25.1628 5.6652 25.7346 4.80098 26.5488 3.93772C28.172 2.21687 30.7554 0.5 34.6384 0.5C38.5145 0.5 41.6241 2.34286 43.777 4.97258C45.9366 7.61065 47.1142 11.0206 47.1142 14.0857C47.1142 16.5856 45.7085 19.4912 43.4921 22.4934C41.2879 25.479 38.339 28.4848 35.3748 31.1718C32.4131 33.8567 29.4495 36.2115 27.2251 37.8958C26.1133 38.7377 25.1871 39.4113 24.5394 39.8741Z" fill="#EBEBEB" stroke="black"/>
</svg>
