<svg width="1356" height="285" viewBox="0 0 1356 285" fill="none" xmlns="http://www.w3.org/2000/svg">
<path d="M305.521 1.13867H360.606V284.384H0V1.13867H55.0847V236.608H152.761V1.13867H207.845V236.608H305.521V1.13867ZM407.37 284.384V1.13867H517.539L575.463 269.028H590.796L648.72 1.13867H759.457V284.384H704.373V48.3463L713.459 15.9266H698.694L637.93 284.384H528.329L468.133 15.9266H452.8L462.454 48.3463V284.384H407.37Z" fill="black"/>
<path d="M1355.79 1.13867V48.915H1249.02V284.384H1193.94V48.915H1087.18V1.13867H1355.79Z" fill="black"/>
<path d="M979.106 146.449L1028.4 237.294L1121.08 187.922L1103.33 156.324L1077.7 170.148C1087.56 -35.2398 910.092 -13.5161 856.853 25.9816L894.318 63.5044C1010.65 16.1072 1036.29 106.952 1026.43 160.274L1010.65 128.676L979.106 146.449Z" fill="black"/>
<path d="M910.097 138.55L860.802 47.7058L768.126 97.0779L785.873 128.676L811.506 114.852C801.647 320.24 979.111 298.516 1032.35 259.018L994.886 221.496C878.548 268.893 852.915 178.048 862.774 124.726L878.548 156.324L910.097 138.55Z" fill="black"/>
</svg>
