<svg width="29" height="29" viewBox="0 0 29 29" fill="none" xmlns="http://www.w3.org/2000/svg">
<path d="M19.5503 18.6088C19.4578 18.7129 19.4648 18.8793 19.5642 18.9781L28.8786 28.2926C29.0405 28.4544 29.0405 28.7168 28.8786 28.8786C28.7168 29.0405 28.4544 29.0405 28.2926 28.8786L18.9781 19.5642C18.8781 19.4642 18.7094 19.4619 18.6105 19.5497C18.6105 19.5497 18.499 19.6526 18.3441 19.7815C16.4045 21.3987 13.9087 22.3714 11.186 22.3714C5.00811 22.3714 0 17.3633 0 11.186C0 5.00811 5.00811 0 11.186 0C17.3633 0 22.3714 5.00811 22.3714 11.186C22.3714 13.8568 21.4357 16.3085 19.8734 18.2319C19.7162 18.4256 19.5503 18.6088 19.5503 18.6088L19.5503 18.6088ZM11.186 21.5431C16.9061 21.5431 21.5432 16.9061 21.5432 11.186C21.5432 5.46593 16.9061 0.828904 11.186 0.828904C5.46595 0.828904 0.828918 5.46593 0.828918 11.186C0.828918 16.9061 5.46595 21.5431 11.186 21.5431Z" fill="black"/>
</svg>
